# Blender v2.80 (sub 75) OBJ File: 'machine.blend'
# www.blender.org
mtllib machine.mtl
o Cube
v 1.000000 1.000000 -1.000000
v 1.000000 -1.000000 -1.000000
v 1.000000 1.000000 1.000000
v 1.000000 -1.000000 1.000000
v -1.000000 1.000000 -1.000000
v -1.000000 -1.000000 -1.000000
v -1.000000 1.000000 1.000000
v -1.000000 -1.000000 1.000000
v 1.000000 0.621531 -0.621531
v 1.000000 -0.621531 -0.621531
v 1.000000 0.621531 0.621531
v 1.000000 -0.621531 0.621531
v 0.000000 2.000000 0.000000
v 0.800000 0.621531 -0.621531
v 0.800000 -0.621531 -0.621531
v 0.800000 0.621531 0.621531
v 0.800000 -0.621531 0.621531
vt 0.375000 0.000000
vt 0.625000 0.000000
vt 0.625000 0.250000
vt 0.375000 0.250000
vt 0.375000 0.250000
vt 0.625000 0.250000
vt 0.625000 0.500000
vt 0.375000 0.500000
vt 0.625000 0.750000
vt 0.375000 0.750000
vt 0.625000 0.750000
vt 0.625000 1.000000
vt 0.375000 1.000000
vt 0.625000 0.500000
vt 0.875000 0.500000
vt 0.875000 0.750000
vt 0.375000 0.250000
vt 0.625000 0.250000
vt 0.875000 0.750000
vt 0.625000 0.750000
vt 0.625000 1.000000
vt 0.375000 0.250000
vt 0.375000 0.000000
vt 0.000000 0.000000
vt 0.000000 0.000000
vt 0.000000 0.000000
vt 0.000000 0.000000
vt 0.000000 0.000000
vt 0.625000 0.750000
vt 0.625000 1.000000
vt 0.375000 0.250000
vt 0.625000 0.250000
vt 0.375000 0.250000
vt 0.375000 0.000000
vt 0.875000 0.750000
vn 0.0000 1.0000 0.0000
vn 0.0000 0.0000 1.0000
vn -1.0000 0.0000 0.0000
vn 0.0000 -1.0000 0.0000
vn 0.0000 0.0000 -1.0000
vn 1.0000 0.0000 0.0000
vn 0.0000 0.7071 -0.7071
vn -0.7071 0.7071 0.0000
vn 0.0000 0.7071 0.7071
vn 0.7071 0.7071 0.0000
usemtl Material
s off
f 1/1/1 5/2/1 7/3/1 3/4/1
f 4/5/2 3/6/2 7/7/2 8/8/2
f 8/8/3 7/7/3 5/9/3 6/10/3
f 6/10/4 2/11/4 4/12/4 8/13/4
f 6/14/5 5/15/5 1/16/5 2/11/5
f 3/6/6 4/5/6 12/17/6 11/18/6
f 2/11/6 1/16/6 9/19/6 10/20/6
f 4/12/6 2/11/6 10/20/6 12/21/6
f 1/1/6 3/4/6 11/22/6 9/23/6
f 5/24/7 13/25/7 1/26/7
f 7/27/8 13/25/8 5/24/8
f 13/25/9 7/27/9 3/4/9
f 1/26/10 13/25/10 3/28/10
f 12/21/1 10/20/1 15/29/1 17/30/1
f 11/18/5 12/17/5 17/31/5 16/32/5
f 9/23/4 11/22/4 16/33/4 14/34/4
f 10/20/2 9/19/2 14/35/2 15/29/2
f 15/29/6 14/34/6 16/32/6 17/30/6
